# xmcd
#
# Track frame offsets: 
#        150
#        17262
#        54905
#        79340
#        89382
#        102452
#        130017
#        149987
#        177252
#        209270
#        231602
#        238180
#        255812
#        310650
#
# Disc length: 4482 seconds
#
# Revision: 9
# Processed by: cddbd v1.5.2PL0 Copyright (c) Steve Scherf et al.
# Submitted via: ExactAudioCopy v0.99pb5
#
DISCID=bc11800e
DTITLE=Erykah Badu - Live
DYEAR=1997
DGENRE=Neo-Soul, R&B
TTITLE0=Rimshot (Intro)
TTITLE1=Other Side Of The Game
TTITLE2=On and On
TTITLE3=Reprise
TTITLE4=Apple Tree
TTITLE5=Ye Yo
TTITLE6=Searching
TTITLE7=Boogie Nights - All Night
TTITLE8=Certainly
TTITLE9=Stay
TTITLE10=Next Lifetime (Interlude)
TTITLE11=Tyrone
TTITLE12=Next Lifetime
TTITLE13=Tyrone (Extended Version)
EXTD=YEAR: 1997
EXTT0=
EXTT1=
EXTT2=
EXTT3=
EXTT4=
EXTT5=
EXTT6=
EXTT7=
EXTT8=
EXTT9=
EXTT10=
EXTT11=
EXTT12=
EXTT13=
PLAYORDER=
